<svg width="400" height="400" viewBox="0 0 400 400" fill="none" xmlns="http://www.w3.org/2000/svg">
    <path d="M310.104 0.09375H89.8952C40.2991 0.09375 0.093502 40.2993 0.093502 89.8954V310.105C0.093502 359.701 40.2991 399.906 89.8952 399.906H310.104C359.7 399.906 399.906 359.701 399.906 310.105V89.8954C399.906 40.2993 359.7 0.09375 310.104 0.09375Z" fill="#E60046"/>
    <path d="M312 147.567C312 132.83 306.146 118.696 295.725 108.275C285.304 97.8544 271.17 92 256.433 92H96V308H256.433C269.551 307.996 282.244 303.351 292.267 294.888C302.289 286.424 308.995 274.688 311.196 261.756C313.396 248.824 310.951 235.531 304.293 224.228C297.634 212.926 287.192 204.343 274.814 200C285.674 196.18 295.083 189.086 301.743 179.695C308.403 170.305 311.986 159.08 312 147.567Z" fill="white"/>
</svg>
