<svg width="20" height="20" viewBox="0 0 20 20" fill="none" xmlns="http://www.w3.org/2000/svg">
<g clip-path="url(#clip0_3808_111463)">
<path fill-rule="evenodd" clip-rule="evenodd" d="M9.9987 19.1663C15.0613 19.1663 19.1654 15.0623 19.1654 9.99967C19.1654 4.93706 15.0613 0.833008 9.9987 0.833008C4.93609 0.833008 0.832031 4.93706 0.832031 9.99967C0.832031 15.0623 4.93609 19.1663 9.9987 19.1663ZM14.1622 7.01148C14.4876 6.68604 14.4876 6.15841 14.1622 5.83297C13.8367 5.50753 13.3091 5.50753 12.9837 5.83297L9.9955 8.82112L7.00735 5.83297C6.68191 5.50753 6.15428 5.50753 5.82884 5.83297C5.5034 6.15841 5.5034 6.68604 5.82884 7.01148L8.81699 9.99963L5.82884 12.9878C5.5034 13.3132 5.5034 13.8409 5.82884 14.1663C6.15428 14.4917 6.68191 14.4917 7.00735 14.1663L9.9955 11.1781L12.9837 14.1663C13.3091 14.4917 13.8367 14.4917 14.1622 14.1663C14.4876 13.8409 14.4876 13.3132 14.1622 12.9878L11.174 9.99963L14.1622 7.01148Z" fill="#DA1719"/>
</g>
<defs>
<clipPath id="clip0_3808_111463">
<rect width="20" height="20" fill="white"/>
</clipPath>
</defs>
</svg>
