<svg width="20" height="20" viewBox="0 0 20 20" fill="none" xmlns="http://www.w3.org/2000/svg">
<g clip-path="url(#clip0_3808_111462)">
<path fill-rule="evenodd" clip-rule="evenodd" d="M9.9987 19.1663C15.0613 19.1663 19.1654 15.0623 19.1654 9.99967C19.1654 4.93706 15.0613 0.833008 9.9987 0.833008C4.93609 0.833008 0.832031 4.93706 0.832031 9.99967C0.832031 15.0623 4.93609 19.1663 9.9987 19.1663ZM14.9955 8.34489L9.08476 14.2556C8.75932 14.5811 8.23169 14.5811 7.90625 14.2556L4.99551 11.3449C4.67007 11.0195 4.67007 10.4918 4.99551 10.1664C5.32094 9.84095 5.84858 9.84095 6.17402 10.1664L8.4955 12.4879L13.817 7.16638C14.1424 6.84095 14.6701 6.84095 14.9955 7.16638C15.3209 7.49182 15.3209 8.01946 14.9955 8.34489Z" fill="#1CB851"/>
</g>
<defs>
<clipPath id="clip0_3808_111462">
<rect width="20" height="20" fill="white"/>
</clipPath>
</defs>
</svg>
